<?xml version="1.0"?>
<svg xmlns="http://www.w3.org/2000/svg" xmlns:xlink="http://www.w3.org/1999/xlink" version="1.1" id="Capa_1" x="0px" y="0px" viewBox="0 0 512.001 512.001" style="enable-background:new 0 0 512.001 512.001;" xml:space="preserve" width="512px" height="512px" class=""><g><g>
	<g>
		<path d="M441.166,504.309c-0.024-2.039-0.651-45.422-11.844-98.738c-15.205-72.434-41.579-125.539-78.39-157.842    c-18.822-16.516-43.341-25.613-69.039-25.613h-51.786c-25.699,0-50.217,9.096-69.04,25.613    c-36.81,32.302-63.184,85.407-78.389,157.842c-10.493,49.986-11.7,91.241-11.829,97.88c-0.01,0.486-0.014,0.786-0.015,0.877    c-0.011,1.014,0.181,2.009,0.554,2.931c0.373,0.922,0.926,1.77,1.639,2.49c1.425,1.44,3.368,2.252,5.395,2.252h355.157    c2.027,0,3.97-0.811,5.394-2.252c1.426-1.441,2.215-3.393,2.193-5.42c0,0,0,0,0-0.001    C441.166,504.324,441.166,504.313,441.166,504.309z M97.587,408.413c18.093-85.956,49.951-128.621,73.489-149.277    c16.053-14.087,37.017-21.844,59.031-21.844h51.786c22.013,0,42.977,7.758,59.03,21.844    c42.646,37.423,63.503,101.834,73.49,149.277c2.432,11.554,4.351,22.686,5.871,33.029c-3.298-1.022-5.848-2.611-8.745-4.423    c-5.645-3.533-12.67-7.93-25.673-7.93s-20.028,4.397-25.673,7.93c-5.016,3.139-8.977,5.618-17.622,5.618    c-8.644,0-12.605-2.479-17.619-5.618c-5.645-3.533-12.67-7.93-25.671-7.93s-20.025,4.397-25.671,7.93    c-5.014,3.139-8.975,5.618-17.619,5.618c-8.643,0-12.604-2.479-17.619-5.618c-5.644-3.533-12.669-7.93-25.67-7.93    c-13.001,0-20.025,4.397-25.669,7.93c-5.015,3.139-8.975,5.618-17.618,5.618c-8.644,0-12.605-2.479-17.62-5.618    c-5.644-3.533-12.669-7.93-25.67-7.93c-13.001,0-20.025,4.397-25.67,7.93c-2.895,1.812-5.444,3.401-8.74,4.423    C93.235,431.098,95.155,419.967,97.587,408.413z M86.271,496.823c0.37-8.081,1.254-22.046,3.327-39.448    c8.846-1.194,14.332-4.628,18.91-7.494c5.015-3.139,8.975-5.618,17.619-5.618c8.644,0,12.605,2.479,17.619,5.618    c5.644,3.533,12.669,7.93,25.671,7.93c13.001,0,20.025-4.397,25.669-7.93c5.015-3.139,8.975-5.618,17.618-5.618    c8.643,0,12.604,2.479,17.619,5.618c5.644,3.533,12.669,7.93,25.67,7.93c13.001,0,20.026-4.397,25.671-7.93    c5.014-3.139,8.975-5.618,17.619-5.618s12.605,2.479,17.619,5.618c5.645,3.533,12.67,7.93,25.671,7.93    c13.002,0,20.027-4.397,25.672-7.93c5.016-3.139,8.977-5.618,17.623-5.618c8.645,0,12.607,2.479,17.623,5.618    c4.578,2.866,10.063,6.298,18.913,7.494c2.073,17.403,2.957,31.368,3.327,39.448H86.271z" data-original="#000000" class="active-path" data-old_color="#000000" fill="#333333"/>
	</g>
</g><g>
	<g>
		<path d="M353.016,135.753c-0.072-1.031-0.19-2.05-0.332-3.062V81.522c0-18.093-14.719-32.813-32.812-32.813H302.26    c-8.708,0-15.792-7.084-15.792-15.791V19.813C286.468,8.888,277.58,0,266.656,0h-23.913c-10.925,0-19.813,8.888-19.813,19.813    v13.105c0,8.707-7.084,15.791-15.791,15.791h-15.011c-18.093,0-32.813,14.72-32.813,32.813v51.175    c-0.141,1.01-0.26,2.026-0.331,3.056c-0.182,2.625-0.609,8.774,13.931,69.294c0.978,4.074,5.075,6.576,9.15,5.605    c4.075-0.979,6.584-5.076,5.605-9.151c-12.863-53.539-13.62-63.071-13.547-64.698c0.056-0.812,0.151-1.614,0.273-2.407    c0.001-0.008,0.004-0.017,0.005-0.025c1.953-12.618,12.04-22.637,24.452-24.685c0.033-0.005,0.067-0.009,0.1-0.015    c0.806-0.13,1.62-0.229,2.444-0.291c3.576-0.27,7.079,0.093,10.382,1.021c7.266,2.042,13.561,6.819,17.528,13.612    c3.367,5.766,8.508,10.167,14.477,12.657c3.581,1.494,7.46,2.3,11.432,2.3h1.568c10.594,0,20.521-5.73,25.909-14.956    c5.77-9.88,16.454-15.482,27.91-14.633c0.823,0.061,1.638,0.161,2.444,0.291c0.033,0.005,0.067,0.009,0.1,0.015    c12.412,2.048,22.499,12.067,24.451,24.685c0.003,0.019,0.008,0.038,0.012,0.057c0.118,0.777,0.211,1.562,0.266,2.357    c0.075,1.651-0.687,11.215-13.609,64.98c-0.98,4.074,1.529,8.172,5.604,9.151c0.597,0.143,1.193,0.212,1.779,0.212    c3.427,0,6.536-2.339,7.371-5.816C353.626,144.547,353.199,138.384,353.016,135.753z M337.509,104.999    c-5.26-4.537-11.574-7.874-18.506-9.582c-0.115-0.028-0.229-0.056-0.344-0.083c-0.45-0.107-0.9-0.209-1.355-0.303    c-0.221-0.045-0.444-0.086-0.666-0.128c-0.374-0.07-0.747-0.142-1.124-0.203c-0.341-0.056-0.685-0.102-1.028-0.149    c-0.277-0.038-0.553-0.082-0.832-0.115c-0.638-0.076-1.278-0.14-1.923-0.188c-17.276-1.28-33.425,7.185-42.144,22.114    c-2.677,4.585-7.585,7.434-12.805,7.434h-1.568c-5.22,0-10.126-2.848-12.804-7.434c-0.527-0.903-1.085-1.78-1.665-2.635    c-0.195-0.287-0.406-0.557-0.607-0.838c-0.397-0.558-0.794-1.116-1.213-1.652c-0.252-0.322-0.519-0.626-0.779-0.94    c-0.391-0.473-0.78-0.946-1.188-1.4c-0.288-0.32-0.588-0.625-0.884-0.936c-0.402-0.423-0.804-0.845-1.221-1.25    c-0.316-0.307-0.641-0.6-0.965-0.896c-0.419-0.384-0.839-0.765-1.272-1.132c-0.338-0.286-0.683-0.561-1.029-0.837    c-0.439-0.35-0.881-0.696-1.332-1.028c-0.356-0.263-0.717-0.516-1.08-0.768c-0.461-0.319-0.926-0.631-1.398-0.932    c-0.37-0.236-0.743-0.466-1.119-0.691c-0.484-0.289-0.974-0.567-1.468-0.837c-0.381-0.208-0.762-0.413-1.149-0.61    c-0.509-0.259-1.025-0.504-1.544-0.743c-0.386-0.178-0.771-0.356-1.162-0.523c-0.539-0.23-1.085-0.441-1.633-0.65    c-0.386-0.147-0.769-0.297-1.158-0.433c-0.573-0.2-1.155-0.378-1.737-0.555c-0.377-0.114-0.751-0.237-1.132-0.341    c-0.623-0.171-1.255-0.316-1.887-0.46c-0.35-0.08-0.696-0.172-1.049-0.243c-0.723-0.147-1.454-0.263-2.187-0.375    c-0.27-0.041-0.536-0.096-0.808-0.133c-1.982-0.265-3.997-0.405-6.034-0.405c-0.051,0-0.103,0.003-0.155,0.003    c-0.072,0-0.144,0.003-0.216,0.004c-1.02,0.008-2.045,0.045-3.074,0.122c-0.645,0.048-1.285,0.112-1.923,0.189    c-0.278,0.033-0.553,0.076-0.829,0.114c-0.345,0.048-0.689,0.094-1.032,0.15c-0.375,0.061-0.747,0.132-1.118,0.202    c-0.224,0.042-0.449,0.083-0.672,0.129c-0.452,0.093-0.901,0.195-1.349,0.301c-0.117,0.028-0.235,0.056-0.351,0.084    c-6.931,1.708-13.243,5.046-18.503,9.582V81.522h0.002c0-9.726,7.912-17.638,17.638-17.638h15.011    c17.075,0,30.967-13.891,30.967-30.966V19.813c0-2.557,2.08-4.638,4.637-4.638h23.913c2.557,0,4.637,2.081,4.637,4.638v13.105    c0,17.075,13.892,30.966,30.967,30.966h17.612c9.725,0,17.637,7.912,17.637,17.638V104.999z" data-original="#000000" class="active-path" data-old_color="#000000" fill="#333333"/>
	</g>
</g></g> </svg>
