<?xml version="1.0" encoding="iso-8859-1"?>
<!-- Generator: Adobe Illustrator 19.0.0, SVG Export Plug-In . SVG Version: 6.00 Build 0)  -->
<svg version="1.1" id="Capa_1" xmlns="http://www.w3.org/2000/svg" xmlns:xlink="http://www.w3.org/1999/xlink" x="0px" y="0px"
	 viewBox="0 0 512 512" style="enable-background:new 0 0 512 512;" xml:space="preserve">
			<path d="M405.333,0H106.667C83.146,0,64,19.135,64,42.667V256c0,23.531,19.146,42.667,42.667,42.667h89.921
				c1.811,3.85,3.99,7.513,6.829,10.698l41.917,46.719v134.583H160c-5.896,0-10.667,4.771-10.667,10.667
				c0,5.896,4.771,10.667,10.667,10.667h192c5.896,0,10.667-4.771,10.667-10.667c0-5.896-4.771-10.667-10.667-10.667h-85.333
				V356.083l41.938-46.75c2.831-3.171,5.003-6.823,6.81-10.667h89.919C428.854,298.667,448,279.531,448,256V42.667
				C448,19.135,428.854,0,405.333,0z M292.708,295.115L256,336.031l-36.688-40.885c-3.854-4.333-5.979-10.188-5.979-16.479
				c0-12.5,8.5-22.667,18.958-22.667c2.875,0,8.479,3.406,14.813,12.99c3.958,5.979,13.833,5.979,17.792,0
				c6.333-9.583,11.938-12.99,14.813-12.99c10.458,0,18.958,10.167,18.958,22.667C298.667,284.958,296.542,290.813,292.708,295.115z
				 M426.667,256c0,11.76-9.563,21.333-21.333,21.333h-85.457c-0.663-23.631-18.378-42.667-40.168-42.667
				c-8.208,0-16.25,3.917-23.708,11.438c-7.458-7.521-15.5-11.438-23.708-11.438c-21.79,0-39.505,19.035-40.168,42.667h-85.457
				c-11.771,0-21.333-9.573-21.333-21.333V42.667c0-11.76,9.563-21.333,21.333-21.333h298.667c11.771,0,21.333,9.573,21.333,21.333
				V256z"/>
			<path d="M266.667,64h-21.333c-5.896,0-10.667,4.771-10.667,10.667c0,5.896,4.771,10.667,10.667,10.667H256v117.333
				c0,5.896,4.771,10.667,10.667,10.667c5.896,0,10.667-4.771,10.667-10.667v-128C277.333,68.771,272.563,64,266.667,64z"/>
</svg>
